HIERARCHY
ROOT Hips
{
  OFFSET 46.0612 95.6686 5.95286
  CHANNELS 6 Xposition Yposition Zposition Zrotation Xrotation Yrotation
  JOINT spine
  {
    OFFSET 0 7.96568 0.458067
    CHANNELS 3 Zrotation Xrotation Yrotation
    JOINT spine1
    {
      OFFSET 0 10.2431 0
      CHANNELS 3 Zrotation Xrotation Yrotation
      JOINT spine2
      {
        OFFSET 0 9.81475 0
        CHANNELS 3 Zrotation Xrotation Yrotation
        JOINT Neck
        {
          OFFSET 0 25.1986 1.20138
          CHANNELS 3 Zrotation Xrotation Yrotation
          JOINT Head
          {
            OFFSET 0 7.61315 0
            CHANNELS 3 Zrotation Xrotation Yrotation
            End Site
            {
              OFFSET 0 18.4281 -6.07733
            }
          }
        }
        JOINT RightShoulder
        {
          OFFSET -4.1327 10.5992 -0.575451
          CHANNELS 3 Zrotation Xrotation Yrotation
          JOINT RightArm
          {
            OFFSET 0 13.9018 0
            CHANNELS 3 Zrotation Xrotation Yrotation
            JOINT RightArmRoll
            {
              OFFSET 0 7.01788 0
              CHANNELS 3 Zrotation Xrotation Yrotation
              JOINT RightForeArm
              {
                OFFSET 0 20.4406 0
                CHANNELS 3 Zrotation Xrotation Yrotation
                JOINT RightForeArmRoll
                {
                  OFFSET 0 7.87515 0
                  CHANNELS 3 Zrotation Xrotation Yrotation
                  JOINT RightHand
                  {
                    OFFSET 0 15.8037 0
                    CHANNELS 3 Zrotation Xrotation Yrotation
                    End Site
                    {
                      OFFSET 0 0 0
                    }
                  }
                }
              }
            }
          }
        }
        JOINT LeftShoulder
        {
          OFFSET 4.1327 10.5992 -0.575451
          CHANNELS 3 Zrotation Xrotation Yrotation
          JOINT LeftArm
          {
            OFFSET 0 13.9018 0
            CHANNELS 3 Zrotation Xrotation Yrotation
            JOINT LeftArmRoll
            {
              OFFSET 0 7.01789 0
              CHANNELS 3 Zrotation Xrotation Yrotation
              JOINT LeftForeArm
              {
                OFFSET 0 20.4406 0
                CHANNELS 3 Zrotation Xrotation Yrotation
                JOINT LeftForeArmRoll
                {
                  OFFSET 0 7.87515 0
                  CHANNELS 3 Zrotation Xrotation Yrotation
                  JOINT LeftHand
                  {
                    OFFSET 0 15.8037 0
                    CHANNELS 3 Zrotation Xrotation Yrotation
                    End Site
                    {
                      OFFSET 0 0 0
                    }
                  }
                }
              }
            }
          }
        }
      }
    }
  }
  JOINT RightUpLeg
  {
    OFFSET -7.06048 -1.2947 -1.0861
    CHANNELS 3 Zrotation Xrotation Yrotation
    JOINT RightUpLegRoll
    {
      OFFSET 0 18.5308 0
      CHANNELS 3 Zrotation Xrotation Yrotation
      JOINT RightLeg
      {
        OFFSET 0 -22.9476 0
        CHANNELS 3 Zrotation Xrotation Yrotation
        JOINT RightLegRoll
        {
          OFFSET 0 23.0226 0
          CHANNELS 3 Zrotation Xrotation Yrotation
          JOINT RightFoot
          {
            OFFSET 0 19.1625 0
            CHANNELS 3 Zrotation Xrotation Yrotation
            JOINT RightToeBase
            {
              OFFSET 0 16.0188 0
              CHANNELS 3 Zrotation Xrotation Yrotation
              End Site
              {
                OFFSET 0.00678979 7.75781 -0.894207
              }
            }
          }
        }
      }
    }
  }
  JOINT LeftUpLeg
  {
    OFFSET 7.06048 -1.2947 -1.0861
    CHANNELS 3 Zrotation Xrotation Yrotation
    JOINT LeftUpLegRoll
    {
      OFFSET 0 18.5309 0
      CHANNELS 3 Zrotation Xrotation Yrotation
      JOINT LeftLeg
      {
        OFFSET 0 22.9475 0
        CHANNELS 3 Zrotation Xrotation Yrotation
        JOINT LeftLegRoll
        {
          OFFSET 0 23.2355 0
          CHANNELS 3 Zrotation Xrotation Yrotation
          JOINT LeftFoot
          {
            OFFSET 0 18.9496 0
            CHANNELS 3 Zrotation Xrotation Yrotation
            JOINT LeftToeBase
            {
              OFFSET 0 16.0188 0
              CHANNELS 3 Zrotation Xrotation Yrotation
              End Site
              {
                OFFSET -0.0304289 7.75782 -0.894207
              }
            }
          }
        }
      }
    }
  }
}
MOTION
Frames: 9
Frame Time: 0.00208333
76.3078 95.236 7.71054 -6.83701 -4.15629 101.913 -0.464552 -1.44066 1.23511 -0.909745 1.1118 2.51562 -0.940503 2.75608 2.53211 -45.1919 4.34504 2.75984 45.2694 10.1287 -5.96431 1.34789 8.81168 26.3477 133.026 81.3443 -22.0806 4.36599e-006 -1.03158e-006 3.88574e-007 -9.75551 12.1926 2.52659 7.80961e-006 -1.46546e-005 -3.01584 8.02896 -4.95119 0.697519 -100.611 -4.71806 5.33441 -63.6963 -8.17131 33.7739 3.97569e-016 -1.46107e-014 -1.27222e-014 159.858 80.943 -141.487 1.93897e-005 1.4276e-006 3.0009 -8.02927 -4.95145 -0.697554 177.694 -11.0028 -1.19643 180 7.01484e-015 178.678 177.906 11.8331 179.495 -3.15761e-006 -4.01226e-006 0.146605 -18.164 67.5228 19.1372 8.17584 26.6627 -1.43027 178.447 22.2749 8.3418 4.54188e-006 -4.6773e-006 -0.754365 0.318987 -10.621 0.366736 5.41965e-008 -5.43316e-006 -0.36631 21.567 70.3348 -21.7695 -8.13581 25.2327 3.48745 
76.3391 95.2369 7.7212 -6.85045 -4.16453 102.018 -0.454327 -1.43187 1.23428 -0.889516 1.12963 2.51295 -0.920234 2.77392 2.52911 -45.3231 4.31404 2.82915 45.312 10.0785 -5.88815 1.35972 8.93204 26.5304 135.1 81.1343 -23.9585 4.36599e-006 -1.03158e-006 3.88574e-007 -9.76238 12.2805 2.52969 7.80961e-006 -1.46546e-005 -3.01584 8.02896 -4.95119 0.697519 -100.64 -4.72682 5.33763 -63.7471 -8.20562 33.6823 -5.56597e-015 -7.05686e-015 -4.29375e-014 159.983 80.9547 -141.643 1.93897e-005 1.4276e-006 3.0009 -8.02927 -4.95145 -0.697554 177.701 -10.981 -1.20703 180 7.01485e-015 178.679 177.906 11.7764 179.496 -3.15761e-006 -4.01226e-006 0.145274 -18.1487 67.5031 19.1213 8.1753 26.7079 -1.36438 178.428 22.2934 8.36349 4.54188e-006 -4.6773e-006 -0.754827 0.327677 -10.6383 0.368807 5.41965e-008 -5.43316e-006 -0.368915 21.5752 70.3466 -21.7818 -8.13581 25.2327 3.48745 
76.3614 95.2321 7.73179 -6.86059 -4.1715 102.124 -0.44481 -1.42239 1.23374 -0.870713 1.14881 2.51096 -0.9014 2.79311 2.52681 -45.443 4.28671 2.89531 45.3499 10.0282 -5.81412 1.37971 9.05028 26.7055 137.076 80.9091 -25.7435 4.36599e-006 -1.03158e-006 3.88574e-007 -9.76181 12.3779 2.53218 7.80961e-006 -1.46546e-005 -3.01584 8.02896 -4.95119 0.697519 -100.661 -4.73747 5.34075 -63.8029 -8.23582 33.5989 -3.57812e-015 -1.16289e-014 -2.22639e-014 160.095 80.9676 -141.786 1.93897e-005 1.4276e-006 3.0009 -8.02927 -4.95145 -0.697554 177.71 -10.9633 -1.21807 180 7.01485e-015 178.681 177.906 11.7248 179.496 -3.15761e-006 -4.01226e-006 0.144005 -18.1338 67.4837 19.1057 8.17448 26.7483 -1.29758 178.407 22.3115 8.38539 4.54188e-006 -4.6773e-006 -0.755316 0.336014 -10.6615 0.371035 5.41965e-008 -5.43316e-006 -0.371868 21.5846 70.3589 -21.7948 -8.13582 25.2327 3.48745 
76.3951 95.227 7.74254 -6.86741 -4.17831 102.232 -0.435727 -1.41223 1.23358 -0.852786 1.16935 2.50982 -0.883453 2.81365 2.52538 -45.5534 4.26339 2.95861 45.3851 9.97613 -5.7415 1.40292 9.16301 26.8722 138.981 80.6698 -27.4581 4.36599e-006 -1.03158e-006 3.88574e-007 -9.75734 12.4861 2.53512 7.80961e-006 -1.46546e-005 -3.01584 8.02896 -4.95119 0.697519 -100.673 -4.7494 5.34369 -63.8636 -8.26236 33.5221 2.78299e-015 2.33572e-014 4.77083e-015 160.195 80.9821 -141.918 1.93897e-005 1.4276e-006 3.0009 -8.02927 -4.95145 -0.697554 177.722 -10.9504 -1.22983 180 7.01485e-015 178.682 177.907 11.6746 179.497 -3.15761e-006 -4.01226e-006 0.142717 -18.1179 67.4632 19.0892 8.17327 26.7821 -1.2267 178.386 22.329 8.40745 4.54188e-006 -4.6773e-006 -0.755812 0.344603 -10.689 0.37347 5.41965e-008 -5.43316e-006 -0.375128 21.5941 70.3715 -21.8078 -8.13582 25.2327 3.48745 
76.4309 95.2242 7.74932 -6.87119 -4.1849 102.341 -0.427046 -1.40146 1.23373 -0.835671 1.19109 2.5094 -0.866327 2.8354 2.52469 -45.6549 4.24383 3.01931 45.4175 9.92251 -5.67023 1.43031 9.27177 27.0315 140.807 80.4176 -29.0949 4.36599e-006 -1.03158e-006 3.88574e-007 -9.74907 12.6034 2.53829 7.80961e-006 -1.46546e-005 -3.01584 8.02896 -4.95119 0.697519 -100.678 -4.76251 5.34648 -63.9288 -8.28551 33.4514 2.78299e-015 2.74323e-014 -2.54444e-014 160.285 80.9979 -142.038 1.93897e-005 1.4276e-006 3.0009 -8.02927 -4.95145 -0.697554 177.738 -10.942 -1.2423 180 -7.01486e-015 178.683 177.908 11.6258 179.497 -3.15761e-006 -4.01226e-006 0.141415 -18.1014 67.4417 19.0719 8.17176 26.8107 -1.15285 178.364 22.3458 8.42971 4.54188e-006 -4.6773e-006 -0.756318 0.353412 -10.7205 0.376086 5.41965e-008 -5.43316e-006 -0.378653 21.6038 70.3843 -21.8209 -8.13582 25.2327 3.48745 
76.4661 95.2375 7.75817 -6.87227 -4.1912 102.451 -0.418735 -1.39014 1.23414 -0.819303 1.21392 2.50958 -0.849956 2.85823 2.5246 -45.7483 4.22775 3.07766 45.4468 9.86766 -5.60028 1.46278 9.37808 27.1846 142.547 80.1537 -30.6483 4.36599e-006 -1.03158e-006 3.88574e-007 -9.73712 12.7279 2.54146 7.80961e-006 -1.46546e-005 -3.01584 8.02896 -4.95119 0.697519 -100.677 -4.77669 5.34914 -63.9976 -8.30557 33.3861 -8.74653e-015 7.25564e-015 -7.31528e-014 160.366 81.0149 -142.15 1.93897e-005 1.4276e-006 3.0009 -8.02927 -4.95145 -0.697554 177.756 -10.9375 -1.25542 180 7.01486e-015 178.684 177.909 11.5784 179.498 -3.15761e-006 -4.01226e-006 0.140101 -18.0843 67.4195 19.0541 8.17002 26.8355 -1.07716 178.342 22.362 8.45216 4.54188e-006 -4.6773e-006 -0.756836 0.362408 -10.7554 0.378858 5.41965e-008 -5.43316e-006 -0.382401 21.6137 70.3972 -21.834 -8.13582 25.2327 3.48745 
76.5012 95.225 7.76093 -6.87095 -4.19715 102.561 -0.410762 -1.37835 1.23476 -0.803618 1.23767 2.51023 -0.834274 2.88199 2.525 -45.8342 4.21491 3.13389 45.4728 9.81185 -5.5316 1.50122 9.48342 27.3328 144.198 79.8791 -32.1143 4.36599e-006 -1.03158e-006 3.88574e-007 -9.72158 12.8578 2.54441 7.80961e-006 -1.46546e-005 -3.01584 8.02896 -4.95119 0.697519 -100.669 -4.79185 5.35169 -64.0697 -8.32279 33.3256 -7.95139e-016 -1.01877e-014 -2.06736e-014 160.44 81.0329 -142.253 1.93897e-005 1.4276e-006 3.0009 -8.02927 -4.95145 -0.697554 177.776 -10.9365 -1.26917 180 7.01486e-015 178.685 177.91 11.5323 179.498 -3.15761e-006 -4.01226e-006 0.138779 -18.0668 67.3966 19.0358 8.16813 26.8578 -1.00073 178.319 22.3774 8.47482 4.54188e-006 -4.6773e-006 -0.757366 0.37156 -10.7933 0.381759 5.41965e-008 -5.43316e-006 -0.386329 21.6237 70.4101 -21.8471 -8.13582 25.2327 3.48745 
76.5273 95.2156 7.78403 -6.86758 -4.20269 102.673 -0.403094 -1.36615 1.23552 -0.78855 1.26223 2.51122 -0.819214 2.90655 2.52576 -45.9133 4.20503 3.18826 45.4953 9.75537 -5.46416 1.54647 9.58929 27.4773 145.757 79.5955 -33.4906 4.36599e-006 -1.03158e-006 3.88574e-007 -9.70256 12.9911 2.54692 7.80961e-006 -1.46546e-005 -3.01584 8.02896 -4.95119 0.697519 -100.657 -4.80788 5.35416 -64.1442 -8.33746 33.2694 -5.1684e-015 -1.22253e-014 -2.70347e-014 160.507 81.0518 -142.351 1.93897e-005 1.4276e-006 3.0009 -8.02927 -4.95145 -0.697554 177.799 -10.9387 -1.28351 180 7.01487e-015 178.686 177.912 11.4876 179.498 -3.15761e-006 -4.01226e-006 0.137452 -18.049 67.3734 19.0173 8.16617 26.8791 -0.924694 178.296 22.392 8.49771 4.54188e-006 -4.6773e-006 -0.75791 0.380833 -10.8336 0.384763 5.41965e-008 -5.43316e-006 -0.390394 21.6338 70.4232 -21.8603 -8.13582 25.2327 3.48746 
76.5491 95.2191 7.7949 -6.86243 -4.20777 102.785 -0.395698 -1.35363 1.23637 -0.774035 1.28745 2.51243 -0.80471 2.93177 2.52674 -45.9863 4.19786 3.24102 45.5139 9.6985 -5.39791 1.59938 9.69715 27.6194 147.221 79.3039 -34.7758 4.36599e-006 -1.03158e-006 3.88574e-007 -9.68016 13.1261 2.54875 7.80961e-006 -1.46546e-005 -3.01584 8.02896 -4.95119 0.697519 -100.64 -4.82469 5.35657 -64.2207 -8.34988 33.2168 -3.97569e-016 -1.27719e-014 -9.54166e-015 160.569 81.0713 -142.442 1.93897e-005 1.4276e-006 3.0009 -8.02927 -4.95145 -0.697554 177.823 -10.9435 -1.29841 180 7.01487e-015 178.687 177.914 11.4441 179.498 -3.15761e-006 -4.01226e-006 0.136125 -18.031 67.3499 18.9986 8.16418 26.9007 -0.850155 178.273 22.4059 8.52085 4.54188e-006 -4.6773e-006 -0.758471 0.390197 -10.8758 0.387843 5.41965e-008 -5.43316e-006 -0.394554 21.644 70.4362 -21.8734 -8.13582 25.2327 3.48746 
